<svg width="100" height="100" viewBox="0 0 100 100" fill="none" xmlns="http://www.w3.org/2000/svg">
<circle cx="50" cy="50" r="50" fill="#158AFF"/>
<path d="M50.2041 49.439V36.01" stroke="white" stroke-width="4.5" stroke-linecap="round"/>
<path d="M50.2041 36.6815V20.9024" stroke="white" stroke-width="6" stroke-linecap="round"/>
<path d="M50.2041 49.439V62.868" stroke="white" stroke-width="4.5" stroke-linecap="round"/>
<path d="M50.2041 62.1966V77.9756" stroke="white" stroke-width="6" stroke-linecap="round"/>
<path d="M50.2041 49.439L61.834 56.1535" stroke="white" stroke-width="4.5" stroke-linecap="round"/>
<path d="M61.251 55.8178L74.916 63.7073" stroke="white" stroke-width="6" stroke-linecap="round"/>
<path d="M50.0742 49.439L38.4443 56.1535" stroke="white" stroke-width="4.5" stroke-linecap="round"/>
<path d="M39.0254 55.8178L25.3604 63.7073" stroke="white" stroke-width="6" stroke-linecap="round"/>
<path d="M50.0742 49.6069L38.4443 42.8924" stroke="white" stroke-width="4.5" stroke-linecap="round"/>
<path d="M39.0254 43.2281L25.3604 35.3386" stroke="white" stroke-width="6" stroke-linecap="round"/>
<path d="M50.2041 49.6069L61.834 42.8924" stroke="white" stroke-width="4.5" stroke-linecap="round"/>
<path d="M61.251 43.2281L74.916 35.3386" stroke="white" stroke-width="6" stroke-linecap="round"/>
<circle cx="25.9154" cy="34.5122" r="6.58537" fill="white"/>
<circle cx="50.4994" cy="19.5854" r="6.58537" fill="white"/>
<circle cx="75.0854" cy="34.5122" r="6.58537" fill="white"/>
<circle cx="75.0854" cy="63.4878" r="6.58537" fill="white"/>
<circle cx="50.4994" cy="78.4146" r="6.58537" fill="white"/>
<circle cx="25.9154" cy="63.4878" r="6.58537" fill="white"/>
</svg>
