<svg width="50" height="50" viewBox="0 0 50 50" fill="none" xmlns="http://www.w3.org/2000/svg">
<circle cx="25" cy="25" r="25" fill="#158AFF"/>
<path d="M14.2124 24.4836L20.4118 18.2312C20.4789 18.1598 20.5597 18.1025 20.6493 18.0628C20.7389 18.0232 20.8355 18.0018 20.9335 18.0001C21.0315 17.9984 21.1288 18.0163 21.2197 18.0529C21.3107 18.0894 21.3934 18.1437 21.463 18.2128C21.5325 18.2818 21.5876 18.364 21.6248 18.4546C21.6621 18.5453 21.6808 18.6425 21.6799 18.7405C21.679 18.8384 21.6585 18.9353 21.6195 19.0252C21.5806 19.1151 21.524 19.1963 21.4532 19.264L16.4925 24.2664H34.49C34.6846 24.2664 34.8712 24.3437 35.0088 24.4813C35.1463 24.6188 35.2236 24.8054 35.2236 25C35.2236 25.1946 35.1463 25.3812 35.0088 25.5188C34.8712 25.6563 34.6846 25.7336 34.49 25.7336H16.4932L21.4539 30.736C21.5247 30.8037 21.5813 30.8849 21.6202 30.9748C21.6592 31.0648 21.6797 31.1616 21.6806 31.2596C21.6815 31.3576 21.6628 31.4547 21.6255 31.5454C21.5883 31.636 21.5332 31.7183 21.4637 31.7873C21.3941 31.8563 21.3114 31.9106 21.2205 31.9472C21.1295 31.9837 21.0322 32.0016 20.9342 31.9999C20.8362 31.9982 20.7396 31.9769 20.65 31.9372C20.5604 31.8975 20.4796 31.8403 20.4125 31.7689L14.2124 25.5164C14.0761 25.3791 13.9996 25.1935 13.9996 25C13.9996 24.8065 14.0761 24.6209 14.2124 24.4836Z" fill="white"/>
</svg>
