<svg width="50" height="50" viewBox="0 0 50 50" fill="none" xmlns="http://www.w3.org/2000/svg">
<circle cx="25" cy="25" r="25" transform="matrix(-1 0 0 1 50 0)" fill="#158AFF"/>
<path d="M35.7876 24.4836L29.5882 18.2312C29.5211 18.1598 29.4403 18.1025 29.3507 18.0628C29.2611 18.0232 29.1645 18.0018 29.0665 18.0001C28.9685 17.9984 28.8712 18.0163 28.7803 18.0529C28.6893 18.0894 28.6066 18.1437 28.537 18.2128C28.4675 18.2818 28.4124 18.364 28.3752 18.4546C28.3379 18.5453 28.3192 18.6425 28.3201 18.7405C28.321 18.8384 28.3415 18.9353 28.3805 19.0252C28.4194 19.1151 28.476 19.1963 28.5468 19.264L33.5075 24.2664H15.51C15.3154 24.2664 15.1288 24.3437 14.9912 24.4813C14.8537 24.6188 14.7764 24.8054 14.7764 25C14.7764 25.1946 14.8537 25.3812 14.9912 25.5188C15.1288 25.6563 15.3154 25.7336 15.51 25.7336H33.5068L28.5461 30.736C28.4753 30.8037 28.4187 30.8849 28.3798 30.9748C28.3408 31.0648 28.3203 31.1616 28.3194 31.2596C28.3185 31.3576 28.3372 31.4547 28.3745 31.5454C28.4117 31.636 28.4668 31.7183 28.5363 31.7873C28.6059 31.8563 28.6886 31.9106 28.7795 31.9472C28.8705 31.9837 28.9678 32.0016 29.0658 31.9999C29.1638 31.9982 29.2604 31.9769 29.35 31.9372C29.4396 31.8975 29.5204 31.8403 29.5875 31.7689L35.7876 25.5164C35.9239 25.3791 36.0004 25.1935 36.0004 25C36.0004 24.8065 35.9239 24.6209 35.7876 24.4836Z" fill="white"/>
</svg>
