<svg width="60" height="60" viewBox="0 0 60 60" fill="none" xmlns="http://www.w3.org/2000/svg">
<circle cx="30" cy="30" r="30" fill="#158AFF"/>
<path d="M31.5 14C31.5 13.1716 30.8284 12.5 30 12.5C29.1716 12.5 28.5 13.1716 28.5 14H30H31.5ZM28.9393 46.0607C29.5251 46.6464 30.4749 46.6464 31.0607 46.0607L40.6066 36.5147C41.1924 35.9289 41.1924 34.9792 40.6066 34.3934C40.0208 33.8076 39.0711 33.8076 38.4853 34.3934L30 42.8787L21.5147 34.3934C20.9289 33.8076 19.9792 33.8076 19.3934 34.3934C18.8076 34.9792 18.8076 35.9289 19.3934 36.5147L28.9393 46.0607ZM30 14H28.5V45H30H31.5V14H30Z" fill="white"/>
</svg>
