<svg width="50" height="50" viewBox="0 0 50 50" fill="none" xmlns="http://www.w3.org/2000/svg">
<path d="M29.0654 18.0352C29.1585 18.0368 29.2508 18.0571 29.3359 18.0947C29.4212 18.1325 29.4986 18.1879 29.5625 18.2559H29.5635L35.7627 24.5088C35.8923 24.6394 35.9648 24.816 35.9648 25C35.9648 25.184 35.8923 25.3606 35.7627 25.4912L29.5625 31.7441L29.5615 31.7451C29.4977 31.8129 29.4211 31.8676 29.3359 31.9053C29.2507 31.943 29.1586 31.9632 29.0654 31.9648C28.9722 31.9665 28.8795 31.9488 28.793 31.9141C28.7064 31.8793 28.6277 31.8274 28.5615 31.7617C28.4954 31.6961 28.4427 31.6183 28.4072 31.5322C28.3718 31.446 28.3536 31.353 28.3545 31.2598C28.3554 31.1667 28.3752 31.0747 28.4121 30.9893C28.4491 30.9038 28.503 30.8261 28.5703 30.7617L28.5713 30.7607L33.5322 25.7588L33.5918 25.6982H15.5098C15.3248 25.6982 15.1475 25.6248 15.0166 25.4941C14.8857 25.3632 14.8115 25.1852 14.8115 25C14.8115 24.8148 14.8857 24.6368 15.0166 24.5059C15.1475 24.3752 15.3248 24.3018 15.5098 24.3018H33.5928L33.5322 24.2412L28.5723 19.2393L28.5713 19.2383L28.4805 19.1328C28.454 19.0948 28.4316 19.0535 28.4131 19.0107C28.3761 18.9253 28.3564 18.8334 28.3555 18.7402C28.3546 18.647 28.3727 18.554 28.4082 18.4678C28.4436 18.3818 28.4956 18.3038 28.5615 18.2383C28.6276 18.1727 28.7066 18.1207 28.793 18.0859C28.8794 18.0512 28.9723 18.0336 29.0654 18.0352Z" fill="black" stroke="black" stroke-width="0.0707448"/>
<circle cx="25" cy="25" r="24.5" transform="matrix(-1 0 0 1 50 0)" stroke="black"/>
</svg>
