<svg width="106" height="176" viewBox="0 0 106 176" fill="none" xmlns="http://www.w3.org/2000/svg">
<rect x="17.5" y="112.5" width="71" height="3.9162" rx="0.5" stroke="black"/>
<rect x="0.5" y="0.5" width="105" height="172" rx="2.5" stroke="black"/>
<path d="M105.5 112.5V170C105.5 171.381 104.381 172.5 103 172.5H3C1.61929 172.5 0.5 171.381 0.5 170V112.5H105.5Z" stroke="black"/>
<path d="M16.5 172.5V175C16.5 175.276 16.2761 175.5 16 175.5H6C5.72386 175.5 5.5 175.276 5.5 175V172.5H16.5Z" stroke="black"/>
<rect x="39.5" y="16.5" width="28" height="31" rx="1.5" stroke="black"/>
<path d="M53 22L53 30" stroke="black"/>
<path d="M50 24.5815C47.0682 25.7683 45 28.6426 45 32C45 36.4183 48.5817 40 53 40C57.4183 40 61 36.4183 61 32C61 28.6453 58.9351 25.7729 56.007 24.5844" stroke="black"/>
<path d="M100.5 172.5V175C100.5 175.276 100.276 175.5 100 175.5H90C89.7239 175.5 89.5 175.276 89.5 175V172.5H100.5Z" stroke="black"/>
<rect x="23.5" y="63.5" width="60" height="26" rx="1.5" stroke="#16599C"/>
<path d="M45.112 80.138L44.716 69.6H47.202L46.784 80.138H45.112ZM45.97 85.132C45.5593 85.132 45.2147 84.9927 44.936 84.714C44.6573 84.4353 44.518 84.1053 44.518 83.724C44.518 83.3133 44.6573 82.976 44.936 82.712C45.2147 82.448 45.5593 82.316 45.97 82.316C46.3807 82.316 46.718 82.448 46.982 82.712C47.246 82.976 47.378 83.3133 47.378 83.724C47.378 84.1053 47.246 84.4353 46.982 84.714C46.718 84.9927 46.3807 85.132 45.97 85.132ZM51.6587 80.138L51.2627 69.6H53.7487L53.3307 80.138H51.6587ZM52.5167 85.132C52.1061 85.132 51.7614 84.9927 51.4827 84.714C51.2041 84.4353 51.0647 84.1053 51.0647 83.724C51.0647 83.3133 51.2041 82.976 51.4827 82.712C51.7614 82.448 52.1061 82.316 52.5167 82.316C52.9274 82.316 53.2647 82.448 53.5287 82.712C53.7927 82.976 53.9247 83.3133 53.9247 83.724C53.9247 84.1053 53.7927 84.4353 53.5287 84.714C53.2647 84.9927 52.9274 85.132 52.5167 85.132ZM58.2054 80.138L57.8094 69.6H60.2954L59.8774 80.138H58.2054ZM59.0634 85.132C58.6528 85.132 58.3081 84.9927 58.0294 84.714C57.7508 84.4353 57.6114 84.1053 57.6114 83.724C57.6114 83.3133 57.7508 82.976 58.0294 82.712C58.3081 82.448 58.6528 82.316 59.0634 82.316C59.4741 82.316 59.8114 82.448 60.0754 82.712C60.3394 82.976 60.4714 83.3133 60.4714 83.724C60.4714 84.1053 60.3394 84.4353 60.0754 84.714C59.8114 84.9927 59.4741 85.132 59.0634 85.132Z" fill="#16599C"/>
</svg>
