<svg width="106" height="176" viewBox="0 0 106 176" fill="none" xmlns="http://www.w3.org/2000/svg">
<rect x="17.5" y="113.573" width="71" height="3.83381" rx="0.5" stroke="black"/>
<rect x="0.5" y="0.5" width="105" height="172.05" rx="2.5" stroke="black"/>
<path d="M16.5 172.567V175C16.5 175.276 16.2761 175.5 16 175.5H6C5.72386 175.5 5.5 175.276 5.5 175V172.567H16.5Z" stroke="black"/>
<path d="M100.5 172.567V175C100.5 175.276 100.276 175.5 100 175.5H90C89.7239 175.5 89.5 175.276 89.5 175V172.567H100.5Z" stroke="black"/>
<path d="M59.0261 101.868C59.3935 97.9917 62.8349 95.1372 66.7126 95.4926C68.072 95.6171 69.3986 95.9776 70.6327 96.5576L85.4195 103.508L84.912 108.862L69.0739 113.006C67.7519 113.352 66.3804 113.465 65.0209 113.34C61.1432 112.985 58.2977 109.554 58.6651 105.678L59.0261 101.868Z" fill="#16599C"/>
<rect width="10.0302" height="5.37827" transform="matrix(0.995828 0.0912479 -0.0943577 0.995538 85.416 103.507)" fill="#B9BDD0"/>
<path d="M94.527 104.008C94.6966 102.22 96.2843 100.903 98.0734 101.067C100.14 101.256 101.498 103.306 100.866 105.285L100.359 106.875C100.215 107.325 100.17 107.799 100.227 108.267L100.427 109.922C100.675 111.981 98.9563 113.749 96.8893 113.56C95.1002 113.396 93.7873 111.813 93.9568 110.025L94.527 104.008Z" fill="#B9BDD0"/>
<path d="M28.8086 60.8023C29.0236 59.3543 29.8408 56.3756 31.3892 56.0447" stroke="#B9BDD0"/>
<path d="M21.2486 62.1262C21.4849 60.3692 22.9844 59.0579 24.7572 59.0579H24.8368C25.0304 59.0579 25.2227 59.0888 25.4065 59.1495L28.0628 60.0273C28.6472 60.2204 29.2815 60.1983 29.851 59.9649L31.751 59.1863C31.958 59.1015 32.1796 59.0579 32.4033 59.0579C34.1773 59.0579 35.6605 60.4067 35.8286 62.1727L35.9078 63.0052C35.969 63.6479 35.9389 64.2999 35.8199 64.9345C35.3468 67.4573 33.5205 69.5317 31.073 70.3052C30.7202 70.4167 30.3425 70.4227 29.9863 70.3224L29.2125 70.1045C28.6117 69.9353 27.9697 69.9937 27.4093 70.2684L27.1669 70.3872C26.6423 70.6444 26.0304 70.6543 25.4978 70.4143C23.5754 69.548 22.1302 67.8817 21.5444 65.8562L21.43 65.4608C21.1464 64.4804 21.0703 63.4516 21.2063 62.4402L21.2486 62.1262Z" fill="#16599C"/>
<path d="M47.7461 62.8005C47.9181 61.6421 48.5719 59.2592 49.8106 58.9944" stroke="#B9BDD0" stroke-width="0.8"/>
<path d="M41.6988 63.8597C41.8879 62.4541 43.0875 61.405 44.5058 61.405H44.5694C44.7243 61.405 44.8781 61.4298 45.0252 61.4784L47.1502 62.1806C47.6178 62.3351 48.1252 62.3174 48.5808 62.1307L50.1008 61.5078C50.2664 61.4399 50.4437 61.405 50.6226 61.405C52.0419 61.405 53.2284 62.4841 53.3629 63.8969L53.4263 64.5629C53.4752 65.0771 53.4511 65.5987 53.3559 66.1063C52.9774 68.1246 51.5164 69.7841 49.5584 70.4029C49.2761 70.4921 48.974 70.4969 48.6891 70.4166L48.07 70.2423C47.5894 70.107 47.0757 70.1537 46.6274 70.3735L46.4335 70.4685C46.0139 70.6743 45.5243 70.6822 45.0982 70.4902C43.5604 69.7971 42.4041 68.4641 41.9355 66.8437L41.844 66.5274C41.6172 65.7431 41.5562 64.9201 41.6651 64.1109L41.6988 63.8597Z" fill="#16599C"/>
<rect x="0.5" y="70.3101" width="105" height="2.93296" stroke="black"/>
<path d="M7.17877 98.7344C7.19006 97.7765 7.97574 97.0088 8.93362 97.0198C10.0331 97.0323 11.107 97.3519 12.0341 97.9426L17.0006 101.107C18.0189 101.755 19.3213 101.754 20.339 101.104L21.9923 100.047C24.0545 98.7288 26.3876 97.8934 28.8175 97.603C30.6206 97.3875 32.447 97.4757 34.2207 97.864L35.2338 98.0858C38.139 98.7218 40.8874 99.9325 43.3173 101.647L47.4212 104.541C47.8508 104.844 48.1037 105.339 48.0975 105.865C48.0913 106.391 47.8268 106.88 47.3902 107.173L43.2191 109.974C40.7494 111.632 37.9732 112.78 35.0539 113.349L34.0358 113.548C32.2534 113.896 30.4255 113.942 28.6279 113.686C26.2055 113.34 23.8928 112.452 21.8622 111.087L20.2342 109.993C19.2321 109.319 17.9301 109.289 16.8968 109.914L11.857 112.964C10.9162 113.533 9.83505 113.828 8.73562 113.816C7.77774 113.805 7.01037 113.019 7.02166 112.061L7.03261 111.133C7.04103 110.419 7.33586 109.738 7.85091 109.243L8.66489 108.461C10.3865 106.807 10.4189 104.064 8.73668 102.371L7.94136 101.571C7.43811 101.064 7.15941 100.377 7.16783 99.6629L7.17877 98.7344Z" fill="#16599C"/>
<ellipse cx="1.28125" cy="1.25978" rx="1.28125" ry="1.25978" transform="matrix(0.999935 0.0113961 -0.0117879 0.999931 41.2949 103.268)" fill="#B9BDD0"/>
<path d="M31.0111 106.058C31.0136 105.844 31.1892 105.673 31.4032 105.675L36.9944 105.739C37.4661 105.744 37.844 106.131 37.8384 106.603L37.7953 110.262C37.7919 110.552 37.5538 110.784 37.2635 110.781L35.6074 110.762C33.0386 110.733 30.9808 108.627 31.0111 106.058Z" fill="#B9BDD0"/>
<rect x="0.5" y="27.0475" width="105" height="2.93296" stroke="black"/>
<path d="M23 53.095C24.7717 50.7723 24.7717 47.5518 23 45.2291C21.2283 42.9064 21.2283 39.6858 23 37.3632" stroke="#16599C" stroke-linecap="round"/>
<path d="M31 48.1787C32.6866 46.3822 32.6866 43.5842 31 41.7877C29.3134 39.9911 29.3134 37.1931 31 35.3966" stroke="#16599C" stroke-linecap="round"/>
<path d="M38 55.0614C39.7717 52.7388 39.7717 49.5182 38 47.1955C36.2283 44.8728 36.2283 41.6523 38 39.3296" stroke="#16599C" stroke-linecap="round"/>
<path d="M19 97.8827C20.3289 97.1205 20.3289 95.2036 19 94.4413C17.6711 93.6791 17.6711 91.7622 19 91" stroke="#16599C" stroke-linecap="round"/>
<path d="M42 96.8827C43.3289 96.1205 43.3289 94.2036 42 93.4413C40.6711 92.6791 40.6711 90.7622 42 90" stroke="#16599C" stroke-linecap="round"/>
<path d="M75 94.8827C76.3289 94.1205 76.3289 92.2036 75 91.4413C73.6711 90.6791 73.6711 88.7622 75 88" stroke="#16599C" stroke-linecap="round"/>
<path d="M87 98.7486C88.3289 97.9864 88.3289 96.0695 87 95.3073C85.6711 94.5451 85.6711 92.6282 87 91.866" stroke="#16599C" stroke-linecap="round"/>
<path d="M54 54.0782C55.6486 52.4572 55.6486 49.7997 54 48.1787C52.3514 46.5578 52.3514 43.9003 54 42.2793" stroke="#16599C" stroke-linecap="round"/>
<path d="M47 49.162C48.6486 47.5411 48.6486 44.8836 47 43.2626C45.3514 41.6416 45.3514 38.9841 47 37.3632" stroke="#16599C" stroke-linecap="round"/>
<path d="M79.3517 50.5308L79.3394 48.5838L80.7605 47.1689" stroke="#B9BDD0" stroke-width="0.233392" stroke-linecap="round"/>
<path d="M73.5587 56.5154L71.5786 56.5275L70.1574 57.9424" stroke="#B9BDD0" stroke-width="0.233392" stroke-linecap="round"/>
<path d="M72.6595 53.0597L71.0142 53.827L69.4645 52.3221L67.375 52.4431" stroke="#B9BDD0" stroke-width="0.233392" stroke-linecap="round"/>
<path d="M75.7184 50.0121L76.4781 48.385L74.9284 46.8801L75.0254 44.8243" stroke="#B9BDD0" stroke-width="0.233392" stroke-linecap="round"/>
<path d="M76.3204 51.4185L75.7874 54.126L80.8547 55.1767L82.3082 55.2203C83.4541 55.2546 84.3966 54.3402 84.377 53.2131C84.3632 52.4228 83.8714 51.7167 83.1269 51.4185L81.0367 50.5814C80.2628 50.2714 79.3981 50.2621 78.6176 50.5554L76.3204 51.4185Z" fill="#B9BDD0"/>
<path d="M74.312 53.5901L77.0588 53.0324L78.1905 58.0012L78.2529 59.4297C78.3022 60.5559 77.384 61.494 76.2375 61.4887C75.4336 61.485 74.7094 61.0103 74.3969 60.282L73.5194 58.2374C73.1946 57.4805 73.1744 56.6305 73.4629 55.8594L74.312 53.5901Z" fill="#B9BDD0"/>
<path d="M71.7231 52.0489C71.3675 51.5024 71.4443 50.7865 71.908 50.3248L72.995 49.2427C73.4787 48.7611 74.2449 48.6925 74.8089 49.0803L75.651 49.6591C75.9882 49.8909 76.2816 50.1789 76.5179 50.5101L77.9759 52.5534C78.0975 52.7239 78.2344 52.8832 78.3851 53.0295L80.7049 55.2821C81.4383 55.9943 81.4456 57.1564 80.7211 57.8778C79.9965 58.5991 78.8146 58.6064 78.0812 57.8942L75.7614 55.6416C75.6107 55.4953 75.447 55.3626 75.2722 55.2452L73.2566 53.8914C72.8645 53.628 72.5305 53.2896 72.2745 52.8963L71.7231 52.0489Z" fill="#16599C"/>
<path d="M10.7014 55.4611L11.8255 55.7572L12.4198 56.7693" stroke="#B9BDD0" stroke-width="0.18286" stroke-linecap="round"/>
<path d="M8.15456 51.3019L8.45575 50.1967L7.86146 49.1846" stroke="#B9BDD0" stroke-width="0.18286" stroke-linecap="round"/>
<path d="M10.285 51.3378L10.0989 50.3016L11.2074 49.6723L11.4629 48.4893" stroke="#B9BDD0" stroke-width="0.18286" stroke-linecap="round"/>
<path d="M11.5642 53.5174L12.3838 54.194L13.4923 53.5647L14.6621 53.9387" stroke="#B9BDD0" stroke-width="0.18286" stroke-linecap="round"/>
<path d="M10.6625 53.6323L9.18495 52.9139L7.79073 55.5739L7.53883 56.3788C7.34099 57.0109 7.7216 57.6777 8.3742 57.8421C8.83185 57.9575 9.31517 57.7936 9.60252 57.4257L10.2572 56.5875C10.6551 56.0779 10.8412 55.4389 10.778 54.7994L10.6625 53.6323Z" fill="#B9BDD0"/>
<path d="M9.72212 52.176L9.61606 53.7934L6.5761 53.6506L5.74123 53.4626C5.0855 53.315 4.68854 52.6575 4.86998 52.0196C4.99722 51.5722 5.38321 51.2426 5.85096 51.1819L6.91658 51.0436C7.56434 50.9595 8.22025 51.1205 8.75189 51.4942L9.72212 52.176Z" fill="#B9BDD0"/>
<path d="M10.8025 51.0372C11.295 50.8868 11.8299 51.0945 12.0899 51.5373L12.312 51.9156C12.5831 52.3772 12.4786 52.9622 12.0648 53.2997L11.8671 53.461C11.622 53.661 11.3433 53.8173 11.0434 53.9228L9.80373 54.3591C9.6494 54.4134 9.50039 54.4813 9.35847 54.5618L7.74263 55.4791C7.22228 55.7745 6.55485 55.5957 6.25188 55.0797C5.9489 54.5637 6.12512 53.906 6.64547 53.6106L8.26131 52.6933C8.40323 52.6128 8.5375 52.5198 8.6625 52.4156L9.60891 51.6263C9.88929 51.3924 10.2146 51.2167 10.5658 51.1095L10.8025 51.0372Z" fill="#16599C"/>
<path d="M52.4444 90.0147L51.4918 90.2657L50.6194 89.7705" stroke="#B9BDD0" stroke-width="0.154973" stroke-linecap="round"/>
<path d="M56.1065 92.0052L56.3618 92.9418L57.2341 93.4371" stroke="#B9BDD0" stroke-width="0.154973" stroke-linecap="round"/>
<path d="M54.5255 92.8676L55.1087 93.5506L54.5663 94.4743L54.8887 95.4491" stroke="#B9BDD0" stroke-width="0.154973" stroke-linecap="round"/>
<path d="M52.6467 91.8008L51.7536 91.6457L51.2111 92.5695L50.1914 92.7823" stroke="#B9BDD0" stroke-width="0.154973" stroke-linecap="round"/>
<path d="M53.2627 91.3401L54.6567 91.2517L54.5337 88.7185L54.3724 88.0259C54.2447 87.4777 53.6778 87.1456 53.1278 87.2968C52.7422 87.4029 52.4581 87.7251 52.4056 88.1159L52.2871 88.9987C52.2143 89.5406 52.3537 90.0896 52.6769 90.5343L53.2627 91.3401Z" fill="#B9BDD0"/>
<path d="M54.578 92.0174L53.9588 90.7862L56.2515 89.6244L56.9422 89.4154C57.4889 89.2501 58.0649 89.5668 58.2067 90.1107C58.3061 90.4921 58.1643 90.8951 57.8463 91.1352L57.1281 91.6775C56.6871 92.0104 56.1338 92.1663 55.5806 92.1133L54.578 92.0174Z" fill="#B9BDD0"/>
<path d="M54.2754 93.3016C53.9773 93.6187 53.4982 93.6918 53.1209 93.4776L52.7792 93.2836C52.3855 93.0601 52.2141 92.588 52.3732 92.1653L52.4438 91.9778C52.5399 91.7227 52.6807 91.486 52.8596 91.2785L53.5714 90.4534C53.6635 90.3466 53.7457 90.2319 53.8169 90.1107L54.597 88.7821C54.8559 88.3411 55.4264 88.1883 55.8711 88.4407C56.3159 88.6932 56.4665 89.2554 56.2075 89.6963L55.4274 91.0249C55.3562 91.1462 55.2962 91.2735 55.2483 91.4053L54.8995 92.3631C54.7919 92.6587 54.6247 92.93 54.408 93.1605L54.2754 93.3016Z" fill="#16599C"/>
<path d="M64.9901 37.0585L63.9748 37.0585L63.2415 36.3375" stroke="#B9BDD0" stroke-width="0.159544" stroke-linecap="round"/>
<path d="M68.0956 39.9969L68.0956 40.9953L68.8288 41.7163" stroke="#B9BDD0" stroke-width="0.159544" stroke-linecap="round"/>
<path d="M66.2896 40.4407L66.6845 41.2727L65.8948 42.0491L65.9512 43.1029" stroke="#B9BDD0" stroke-width="0.159544" stroke-linecap="round"/>
<path d="M64.7095 38.8879L63.8634 38.4997L63.0737 39.2762L62.002 39.2207" stroke="#B9BDD0" stroke-width="0.159544" stroke-linecap="round"/>
<path d="M65.4461 38.5903L66.8563 38.8676L67.4204 36.3164L67.4478 35.5837C67.4694 35.0061 66.9955 34.528 66.4077 34.5343C65.9955 34.5387 65.6257 34.7844 65.4679 35.1588L65.1097 36.0081C64.8909 36.5269 64.8808 37.1081 65.0814 37.634L65.4461 38.5903Z" fill="#B9BDD0"/>
<path d="M66.573 39.6091L66.2909 38.2225L68.8857 37.6679L69.6308 37.641C70.2183 37.6197 70.7045 38.0856 70.6981 38.6636C70.6936 39.0689 70.4437 39.4325 70.063 39.5877L69.1992 39.9398C68.6716 40.155 68.0805 40.1649 67.5457 39.9677L66.573 39.6091Z" fill="#B9BDD0"/>
<path d="M65.9246 40.808C65.5432 41.0447 65.0458 40.9901 64.7269 40.6765L64.4461 40.4005C64.1135 40.0734 64.0691 39.5581 64.3411 39.1807L64.4664 39.0067C64.629 38.781 64.8306 38.585 65.0619 38.4275L65.9999 37.789C66.119 37.708 66.2303 37.6166 66.3327 37.5159L67.4762 36.3916C67.85 36.024 68.4561 36.024 68.83 36.3916C69.2038 36.7591 69.2038 37.3551 68.83 37.7227L67.6865 38.847C67.5841 38.9476 67.4912 39.0572 67.4087 39.1742L66.7974 40.0425C66.6126 40.305 66.3757 40.5281 66.1011 40.6985L65.9246 40.808Z" fill="#16599C"/>
<path d="M105.5 113.573V170.05C105.5 171.431 104.381 172.55 103 172.55H3C1.61929 172.55 0.5 171.431 0.5 170.05V113.573H105.5Z" stroke="black"/>
</svg>
