<svg width="106" height="176" viewBox="0 0 106 176" fill="none" xmlns="http://www.w3.org/2000/svg">
<rect x="17.5" y="112.5" width="71" height="3.9162" rx="0.5" stroke="black"/>
<rect x="0.5" y="0.5" width="105" height="172" rx="2.5" stroke="black"/>
<path d="M105.5 112.5V170C105.5 171.381 104.381 172.5 103 172.5H3C1.61929 172.5 0.5 171.381 0.5 170V112.5H105.5Z" stroke="black"/>
<path d="M16.5 172.5V175C16.5 175.276 16.2761 175.5 16 175.5H6C5.72386 175.5 5.5 175.276 5.5 175V172.5H16.5Z" stroke="black"/>
<rect x="39.5" y="16.5" width="28" height="31" rx="1.5" stroke="black"/>
<path d="M53 22L53 30" stroke="black"/>
<path d="M50 24.5815C47.0682 25.7683 45 28.6426 45 32C45 36.4183 48.5817 40 53 40C57.4183 40 61 36.4183 61 32C61 28.6453 58.9351 25.7729 56.007 24.5844" stroke="black"/>
<path d="M100.5 172.5V175C100.5 175.276 100.276 175.5 100 175.5H90C89.7239 175.5 89.5 175.276 89.5 175V172.5H100.5Z" stroke="black"/>
<path d="M66.8704 141.218C66.9507 141.083 67.0965 141 67.2539 141C67.4071 141 67.5495 141.079 67.6311 141.208L74.6403 152.329C75.5286 153.738 75.9999 155.37 75.9999 157.035C76 161.179 72.6407 164.538 68.4968 164.538H66.6003C62.4028 164.538 59.0001 161.136 59 156.938C59 155.333 59.4322 153.757 60.2514 152.376L66.8704 141.218Z" fill="#16599C"/>
<path d="M48.0124 139.111C48.0533 139.042 48.1276 139 48.2079 139C48.2859 139 48.3586 139.04 48.4002 139.106L51.9735 144.775C52.4263 145.494 52.6666 146.326 52.6666 147.175C52.6667 149.287 50.9541 151 48.8415 151H47.8747C45.7348 151 44 149.265 44 147.125C44 146.307 44.2204 145.504 44.6379 144.8L48.0124 139.111Z" fill="#16599C"/>
<path d="M41.0124 120.111C41.0533 120.042 41.1276 120 41.2079 120C41.2859 120 41.3586 120.04 41.4002 120.106L44.9735 125.775C45.4263 126.494 45.6666 127.326 45.6666 128.175C45.6667 130.287 43.9541 132 41.8415 132H40.8747C38.7348 132 37 130.265 37 128.125C37 127.307 37.2204 126.504 37.6379 125.8L41.0124 120.111Z" fill="#16599C"/>
<path d="M18.0926 134.141C18.1446 134.054 18.2389 134 18.3408 134C18.4399 134 18.532 134.051 18.5849 134.135L23.1202 141.33C23.695 142.242 23.9999 143.298 24 144.376C24 147.057 21.8263 149.231 19.145 149.231H17.9179C15.2018 149.231 13 147.029 13 144.313C13 143.274 13.2797 142.254 13.8097 141.361L18.0926 134.141Z" fill="#16599C"/>
<path d="M88.0216 121.195C88.0933 121.074 88.2233 121 88.3638 121C88.5004 121 88.6275 121.07 88.7003 121.186L94.9536 131.107C95.7461 132.364 96.1666 133.82 96.1666 135.306C96.1666 139.003 93.1697 142 89.4727 142H87.7807C84.0358 142 81.0001 138.964 81 135.219C81 133.787 81.3856 132.381 82.1164 131.149L88.0216 121.195Z" fill="#16599C"/>
</svg>
