<svg width="106" height="176" viewBox="0 0 106 176" fill="none" xmlns="http://www.w3.org/2000/svg">
<rect x="17.5" y="112.5" width="71" height="3.9162" rx="0.5" stroke="black"/>
<rect x="0.5" y="0.5" width="105" height="172" rx="2.5" stroke="black"/>
<path d="M105.5 112.5V170C105.5 171.381 104.381 172.5 103 172.5H3C1.61929 172.5 0.5 171.381 0.5 170V112.5H105.5Z" stroke="black"/>
<path d="M16.5 172.5V175C16.5 175.276 16.2761 175.5 16 175.5H6C5.72386 175.5 5.5 175.276 5.5 175V172.5H16.5Z" stroke="black"/>
<rect x="39.5" y="16.5" width="28" height="31" rx="1.5" stroke="black"/>
<path d="M53 22L53 30" stroke="black"/>
<path d="M50 24.5815C47.0682 25.7683 45 28.6426 45 32C45 36.4183 48.5817 40 53 40C57.4183 40 61 36.4183 61 32C61 28.6453 58.9351 25.7729 56.007 24.5844" stroke="black"/>
<path d="M100.5 172.5V175C100.5 175.276 100.276 175.5 100 175.5H90C89.7239 175.5 89.5 175.276 89.5 175V172.5H100.5Z" stroke="black"/>
<rect x="56.085" y="75.9755" width="6.92632" height="0.989474" rx="0.329825" transform="rotate(-90 56.085 75.9755)" fill="#B9BDD0"/>
<rect x="49.8184" y="75.9755" width="6.92632" height="0.989474" rx="0.329825" transform="rotate(-90 49.8184 75.9755)" fill="#B9BDD0"/>
<path d="M61.0037 91.4965C64.0555 89.7345 66.39 86.9548 67.5979 83.6443C68.8059 80.3339 68.8104 76.704 67.6106 73.3906C66.4108 70.0772 64.0833 67.2917 61.0359 65.5222C57.9884 63.7526 54.4155 63.112 50.9431 63.7124C47.4707 64.3129 44.3203 66.1162 42.0441 68.8063C39.7678 71.4964 38.5108 74.9017 38.4933 78.4256C38.4759 81.9495 39.6991 85.3672 41.9486 88.0797C44.1981 90.7922 47.3304 92.6266 50.7967 93.2615C53.8616 93.1263 53.3668 92.0544 53.3668 85.7053" stroke="#16599C" stroke-width="1.41381" stroke-linecap="round"/>
<path d="M46.8525 76.1403H59.7157V80.7578C59.7157 83.4902 57.5007 85.7052 54.7683 85.7052H51.7999C49.0676 85.7052 46.8525 83.4902 46.8525 80.7578V76.1403Z" fill="#16599C"/>
<rect x="45.5322" y="75.151" width="15.5018" height="0.989474" rx="0.329825" fill="#B9BDD0"/>
</svg>
