<svg width="106" height="176" viewBox="0 0 106 176" fill="none" xmlns="http://www.w3.org/2000/svg">
<rect x="0.5" y="0.5" width="105" height="172.05" rx="2.5" stroke="black"/>
<path d="M105.5 113.573V170.05C105.5 171.431 104.381 172.55 103 172.55H3C1.61929 172.55 0.5 171.431 0.5 170.05V113.573H105.5Z" stroke="black"/>
<rect x="17.5" y="113.573" width="71" height="3.9162" rx="0.5" stroke="black"/>
<path d="M16.5 172.567V175C16.5 175.276 16.2761 175.5 16 175.5H6C5.72386 175.5 5.5 175.276 5.5 175V172.567H16.5Z" stroke="black"/>
<path d="M100.5 172.567V175C100.5 175.276 100.276 175.5 100 175.5H90C89.7239 175.5 89.5 175.276 89.5 175V172.567H100.5Z" stroke="black"/>
<path d="M90.2783 98.2663C90.4309 98.1137 90.6784 98.1137 90.8311 98.2663L93.3186 100.754C93.4713 100.907 93.4713 101.154 93.3186 101.307C93.166 101.459 92.9185 101.459 92.7659 101.307L90.5547 99.0955L88.3435 101.307C88.1909 101.459 87.9434 101.459 87.7907 101.307C87.6381 101.154 87.6381 100.907 87.7907 100.754L90.2783 98.2663ZM90.5547 102.257L90.1638 102.257L90.1638 98.5427L90.5547 98.5427L90.9456 98.5427L90.9456 102.257L90.5547 102.257Z" fill="#16599C"/>
<path d="M90.5547 98.5427V94.2091" stroke="#16599C" stroke-width="0.781766"/>
<path d="M90.2783 89.533C90.4309 89.6856 90.6784 89.6856 90.8311 89.533L93.3186 87.0454C93.4713 86.8928 93.4713 86.6453 93.3186 86.4926C93.166 86.34 92.9185 86.34 92.7659 86.4926L90.5547 88.7038L88.3435 86.4926C88.1909 86.34 87.9434 86.34 87.7907 86.4926C87.6381 86.6453 87.6381 86.8928 87.7907 87.0454L90.2783 89.533ZM90.5547 85.5421L90.1638 85.5421L90.1638 89.2566L90.5547 89.2566L90.9456 89.2566L90.9456 85.5421L90.5547 85.5421Z" fill="#16599C"/>
<path d="M90.5547 89.2565V93.5901" stroke="#16599C" stroke-width="0.781766"/>
<path d="M93.9829 96.0599C93.9323 95.8558 94.0656 95.6471 94.2805 95.5937L97.7833 94.724C97.9982 94.6706 98.2135 94.7928 98.264 94.9969C98.3146 95.201 98.1813 95.4097 97.9664 95.4631L94.8528 96.2362L95.5851 99.1924C95.6357 99.3965 95.5024 99.6052 95.2875 99.6586C95.0725 99.712 94.8573 99.5898 94.8067 99.3857L93.9829 96.0599ZM97.6437 97.8205L97.4333 98.1501L94.1616 96.2929L94.3721 95.9633L94.5825 95.6336L97.8542 97.4909L97.6437 97.8205Z" fill="#16599C"/>
<path d="M94.3716 95.9634L90.5547 93.7966" stroke="#16599C" stroke-width="0.781766"/>
<path d="M86.7989 95.5834C87.004 95.6424 87.1212 95.8602 87.0607 96.07L86.0754 99.4874C86.0149 99.6972 85.7997 99.8193 85.5946 99.7603C85.3896 99.7013 85.2724 99.4835 85.3329 99.2738L86.2087 96.236L83.2387 95.3815C83.0337 95.3225 82.9165 95.1046 82.9769 94.8949C83.0374 94.6852 83.2526 94.563 83.4577 94.622L86.7989 95.5834ZM83.4178 97.8204L83.2327 97.4763L86.5044 95.6191L86.6895 95.9631L86.8746 96.3072L83.6029 98.1644L83.4178 97.8204Z" fill="#16599C"/>
<path d="M86.6909 95.9633L90.5078 93.7965" stroke="#16599C" stroke-width="0.781766"/>
<path d="M86.6607 91.4294C86.7112 91.6335 86.578 91.8422 86.363 91.8955L82.8603 92.7652C82.6453 92.8186 82.4301 92.6964 82.3795 92.4923C82.329 92.2883 82.4622 92.0795 82.6772 92.0262L85.7908 91.2531L85.0584 88.2968C85.0079 88.0927 85.1411 87.884 85.3561 87.8307C85.571 87.7773 85.7863 87.8995 85.8368 88.1036L86.6607 91.4294ZM82.9998 89.6688L83.2103 89.3391L86.482 91.1964L86.2715 91.526L86.061 91.8556L82.7893 89.9984L82.9998 89.6688Z" fill="#16599C"/>
<path d="M86.2709 91.526L90.0879 93.6927" stroke="#16599C" stroke-width="0.781766"/>
<path d="M94.4018 91.43C94.3513 91.6341 94.4845 91.8428 94.6995 91.8961L98.2022 92.7659C98.4172 92.8192 98.6324 92.697 98.683 92.493C98.7335 92.2889 98.6003 92.0802 98.3853 92.0268L95.2717 91.2537L96.0041 88.2974C96.0546 88.0933 95.9214 87.8846 95.7064 87.8313C95.4915 87.7779 95.2762 87.9001 95.2257 88.1042L94.4018 91.43ZM98.0627 89.6694L97.8522 89.3397L94.5805 91.197L94.791 91.5266L95.0015 91.8562L98.2732 89.999L98.0627 89.6694Z" fill="#16599C"/>
<path d="M94.7916 91.5266L90.9746 93.6934" stroke="#16599C" stroke-width="0.781766"/>
<ellipse cx="90.5544" cy="93.7965" rx="0.83951" ry="0.82544" fill="#16599C"/>
<path d="M17.0823 56.0528C17.3356 55.7995 17.7464 55.7995 17.9998 56.0528L22.1287 60.1817C22.382 60.4351 22.382 60.8459 22.1287 61.0993C21.8753 61.3526 21.4645 61.3526 21.2111 61.0993L17.541 57.4291L13.8709 61.0993C13.6175 61.3526 13.2067 61.3526 12.9534 61.0993C12.7 60.8459 12.7 60.4351 12.9534 60.1817L17.0823 56.0528ZM17.541 62.6769L16.8922 62.6769L16.8922 56.5116L17.541 56.5116L18.1898 56.5116L18.1898 62.6769L17.541 62.6769Z" fill="#16599C"/>
<path d="M17.54 56.5116V49.3187" stroke="#16599C" stroke-width="1.29758"/>
<path d="M17.0823 41.5569C17.3356 41.8103 17.7464 41.8103 17.9998 41.5569L22.1287 37.428C22.382 37.1747 22.382 36.7639 22.1287 36.5105C21.8753 36.2571 21.4645 36.2571 21.2111 36.5105L17.541 40.1806L13.8709 36.5105C13.6175 36.2571 13.2067 36.2571 12.9534 36.5105C12.7 36.7639 12.7 37.1747 12.9534 37.428L17.0823 41.5569ZM17.541 34.9328L16.8922 34.9328L16.8922 41.0981L17.541 41.0981L18.1898 41.0981L18.1898 34.9328L17.541 34.9328Z" fill="#16599C"/>
<path d="M17.54 41.0982V48.2911" stroke="#16599C" stroke-width="1.29758"/>
<path d="M23.231 52.3907C23.1471 52.0519 23.3682 51.7054 23.7249 51.6168L29.5381 50.1728C29.8948 50.0842 30.2521 50.287 30.336 50.6258C30.42 50.9645 30.1989 51.311 29.8421 51.3996L24.6749 52.6832L25.891 57.5905C25.975 57.9292 25.7539 58.2757 25.3971 58.3643C25.0404 58.4529 24.6832 58.2501 24.5992 57.9113L23.231 52.3907ZM29.3073 55.3129L28.9581 55.8601L23.5277 52.7774L23.877 52.2302L24.2262 51.683L29.6565 54.7657L29.3073 55.3129Z" fill="#16599C"/>
<path d="M23.8745 52.2302L17.5391 48.6338" stroke="#16599C" stroke-width="1.29758"/>
<path d="M11.3087 51.6001C11.649 51.698 11.8435 52.0596 11.7432 52.4076L10.1077 58.08C10.0073 58.4281 9.65007 58.6309 9.30975 58.533C8.96943 58.4351 8.7749 58.0735 8.87526 57.7254L10.329 52.6833L5.39937 51.2649C5.05905 51.167 4.86452 50.8054 4.96489 50.4573C5.06525 50.1092 5.42249 49.9064 5.76281 50.0044L11.3087 51.6001ZM5.6966 55.313L5.38938 54.742L10.8197 51.6593L11.127 52.2303L11.4342 52.8014L6.00383 55.8841L5.6966 55.313Z" fill="#16599C"/>
<path d="M11.1255 52.2305L17.4609 48.634" stroke="#16599C" stroke-width="1.29758"/>
<path d="M11.0737 44.7057C11.1576 45.0444 10.9364 45.3909 10.5797 45.4794L4.76577 46.923C4.40899 47.0116 4.05175 46.8088 3.96784 46.47C3.88393 46.1313 4.10512 45.7849 4.46189 45.6963L9.62981 44.4131L8.41431 39.5063C8.33039 39.1675 8.55159 38.8211 8.90836 38.7325C9.26513 38.6439 9.62237 38.8467 9.70629 39.1855L11.0737 44.7057ZM4.99739 41.7834L5.34673 41.2363L10.7771 44.319L10.4277 44.8661L10.0784 45.4132L4.64804 42.3305L4.99739 41.7834Z" fill="#16599C"/>
<path d="M10.4292 44.8661L16.7646 48.4625" stroke="#16599C" stroke-width="1.29758"/>
<path d="M23.9254 44.7056C23.8414 45.0444 24.0625 45.3909 24.4193 45.4795L30.2324 46.9235C30.5892 47.0121 30.9464 46.8093 31.0304 46.4706C31.1143 46.1318 30.8932 45.7853 30.5365 45.6967L25.3692 44.4131L26.5854 39.5059C26.6693 39.1671 26.4482 38.8206 26.0915 38.732C25.7348 38.6434 25.3775 38.8462 25.2936 39.185L23.9254 44.7056ZM30.0016 41.7834L29.6524 41.2362L24.2221 44.3189L24.5713 44.8661L24.9205 45.4133L30.3509 42.3306L30.0016 41.7834Z" fill="#16599C"/>
<path d="M24.5708 44.8661L18.2354 48.4625" stroke="#16599C" stroke-width="1.29758"/>
<ellipse cx="17.5399" cy="48.6337" rx="1.39343" ry="1.37007" fill="#16599C"/>
<rect x="0.5" y="70.3101" width="105" height="2.93296" stroke="black"/>
<rect x="0.5" y="27.0475" width="105" height="2.93296" stroke="black"/>
<path d="M38.7064 90.4727C38.868 90.3111 39.13 90.3111 39.2917 90.4727L41.9256 93.1066C42.0872 93.2682 42.0872 93.5303 41.9256 93.6919C41.7639 93.8536 41.5019 93.8536 41.3403 93.6919L38.999 91.3507L36.6578 93.6919C36.4962 93.8536 36.2341 93.8536 36.0725 93.6919C35.9108 93.5303 35.9108 93.2682 36.0725 93.1066L38.7064 90.4727ZM38.999 94.6984L38.5851 94.6984L38.5851 90.7654L38.999 90.7654L39.4129 90.7654L39.4129 94.6984L38.999 94.6984Z" fill="#16599C"/>
<path d="M38.999 90.7654V86.1769" stroke="#16599C" stroke-width="0.827753"/>
<path d="M38.7064 81.2256C38.868 81.3873 39.13 81.3873 39.2917 81.2256L41.9256 78.5917C42.0872 78.4301 42.0872 78.1681 41.9256 78.0064C41.7639 77.8448 41.5019 77.8448 41.3403 78.0064L38.999 80.3477L36.6578 78.0064C36.4962 77.8448 36.2341 77.8448 36.0725 78.0064C35.9108 78.1681 35.9108 78.4301 36.0725 78.5917L38.7064 81.2256ZM38.999 77L38.5851 77L38.5851 80.933L38.999 80.933L39.4129 80.933L39.4129 77L38.999 77Z" fill="#16599C"/>
<path d="M38.999 80.933V85.5215" stroke="#16599C" stroke-width="0.827753"/>
<path d="M42.6299 88.1365C42.5764 87.9204 42.7175 87.6994 42.9451 87.6429L46.6539 86.722C46.8815 86.6655 47.1093 86.7949 47.1629 87.011C47.2164 87.2271 47.0753 87.4481 46.8477 87.5046L43.551 88.3231L44.3264 91.4533C44.3799 91.6694 44.2388 91.8904 44.0112 91.9469C43.7836 92.0034 43.5557 91.874 43.5022 91.6579L42.6299 88.1365ZM46.5061 90.0007L46.2833 90.3497L42.8191 88.3832L43.042 88.0342L43.2648 87.6852L46.729 89.6516L46.5061 90.0007Z" fill="#16599C"/>
<path d="M43.0424 88.0341L39.001 85.7399" stroke="#16599C" stroke-width="0.827753"/>
<path d="M35.0251 87.632C35.2422 87.6945 35.3663 87.9251 35.3023 88.1472L34.259 91.7657C34.1949 91.9877 33.967 92.1171 33.75 92.0546C33.5329 91.9922 33.4088 91.7615 33.4728 91.5395L34.4002 88.323L31.2555 87.4182C31.0384 87.3557 30.9143 87.1251 30.9783 86.903C31.0423 86.681 31.2702 86.5516 31.4873 86.6141L35.0251 87.632ZM31.4451 90.0005L31.2491 89.6363L34.7132 87.6698L34.9092 88.0341L35.1052 88.3983L31.641 90.3648L31.4451 90.0005Z" fill="#16599C"/>
<path d="M34.9087 88.034L38.9502 85.7397" stroke="#16599C" stroke-width="0.827753"/>
<path d="M34.876 83.2341C34.9295 83.4502 34.7884 83.6712 34.5608 83.7277L30.852 84.6486C30.6244 84.7051 30.3965 84.5757 30.343 84.3596C30.2895 84.1435 30.4306 83.9225 30.6581 83.866L33.9549 83.0475L33.1795 79.9173C33.1259 79.7012 33.267 79.4802 33.4946 79.4237C33.7222 79.3672 33.9501 79.4966 34.0036 79.7127L34.876 83.2341ZM30.9997 81.3699L31.2226 81.0209L34.6867 82.9874L34.4639 83.3364L34.241 83.6854L30.7769 81.719L30.9997 81.3699Z" fill="#16599C"/>
<path d="M34.4634 83.3364L38.5049 85.6306" stroke="#16599C" stroke-width="0.827753"/>
<path d="M43.0733 83.234C43.0198 83.4501 43.1608 83.6711 43.3884 83.7276L47.0967 84.6488C47.3243 84.7053 47.5522 84.5759 47.6057 84.3598C47.6593 84.1437 47.5182 83.9227 47.2907 83.8662L43.9944 83.0474L44.7702 79.9169C44.8237 79.7008 44.6827 79.4798 44.4551 79.4233C44.2276 79.3667 43.9997 79.4961 43.9461 79.7122L43.0733 83.234ZM46.9495 81.3698L46.7267 81.0207L43.2626 82.9872L43.4854 83.3363L43.7081 83.6854L47.1723 81.7189L46.9495 81.3698Z" fill="#16599C"/>
<path d="M43.4858 83.3364L39.4443 85.6306" stroke="#16599C" stroke-width="0.827753"/>
<ellipse cx="38.9992" cy="85.7398" rx="0.888893" ry="0.873995" fill="#16599C"/>
<path d="M23.8859 15.2045C24.0093 15.0811 24.2094 15.0811 24.3329 15.2045L26.3442 17.2159C26.4676 17.3393 26.4676 17.5394 26.3442 17.6628C26.2208 17.7863 26.0207 17.7863 25.8973 17.6628L24.1094 15.8749L22.3215 17.6628C22.1981 17.7863 21.998 17.7863 21.8745 17.6628C21.7511 17.5394 21.7511 17.3393 21.8745 17.2159L23.8859 15.2045ZM24.1094 18.4314L23.7933 18.4314L23.7933 15.428L24.1094 15.428L24.4254 15.428L24.4254 18.4314L24.1094 18.4314Z" fill="#16599C"/>
<path d="M24.1094 15.4279V11.924" stroke="#16599C" stroke-width="0.63211"/>
<path d="M23.8859 8.14292C24.0093 8.26635 24.2094 8.26635 24.3329 8.14292L26.3442 6.13156C26.4676 6.00813 26.4676 5.80801 26.3442 5.68459C26.2208 5.56116 26.0207 5.56116 25.8973 5.68459L24.1094 7.47246L22.3215 5.68459C22.1981 5.56116 21.998 5.56116 21.8745 5.68459C21.7511 5.80801 21.7511 6.00813 21.8745 6.13156L23.8859 8.14292ZM24.1094 4.91603L23.7933 4.91603L23.7933 7.91943L24.1094 7.91943L24.4254 7.91943L24.4254 4.91603L24.1094 4.91603Z" fill="#16599C"/>
<path d="M24.1094 7.91949V11.4235" stroke="#16599C" stroke-width="0.63211"/>
<path d="M26.8807 13.4204C26.8398 13.2554 26.9475 13.0866 27.1213 13.0435L29.9531 12.34C30.1269 12.2969 30.3009 12.3956 30.3418 12.5607C30.3827 12.7257 30.275 12.8945 30.1012 12.9377L27.584 13.5629L28.1765 15.9535C28.2174 16.1185 28.1096 16.2873 27.9359 16.3305C27.7621 16.3736 27.5881 16.2748 27.5472 16.1098L26.8807 13.4204ZM29.8407 14.844L29.6705 15.1106L27.0252 13.6088L27.1953 13.3423L27.3654 13.0757L30.0108 14.5774L29.8407 14.844Z" fill="#16599C"/>
<path d="M27.1956 13.3424L24.1094 11.5905" stroke="#16599C" stroke-width="0.63211"/>
<path d="M21.0729 13.0353C21.2387 13.083 21.3334 13.2591 21.2846 13.4287L20.4878 16.1919C20.4389 16.3615 20.2649 16.4603 20.0991 16.4126C19.9333 16.3649 19.8386 16.1887 19.8875 16.0192L20.5957 13.5629L18.1942 12.872C18.0284 12.8243 17.9337 12.6481 17.9826 12.4786C18.0315 12.309 18.2055 12.2102 18.3713 12.2579L21.0729 13.0353ZM18.339 14.844L18.1894 14.5658L20.8347 13.0641L20.9844 13.3423L21.134 13.6205L18.4887 15.1222L18.339 14.844Z" fill="#16599C"/>
<path d="M20.9841 13.3423L24.0703 11.5903" stroke="#16599C" stroke-width="0.63211"/>
<path d="M20.9611 9.67672C21.002 9.84176 20.8943 10.0105 20.7205 10.0537L17.8887 10.7571C17.7149 10.8003 17.5409 10.7015 17.5 10.5365C17.4591 10.3715 17.5668 10.2027 17.7406 10.1595L20.2578 9.53423L19.6653 7.14368C19.6244 6.97865 19.7322 6.80987 19.9059 6.7667C20.0797 6.72353 20.2537 6.82233 20.2946 6.98736L20.9611 9.67672ZM18.0011 8.25318L18.1713 7.98662L20.8166 9.48832L20.6465 9.75488L20.4764 10.0214L17.831 8.51975L18.0011 8.25318Z" fill="#16599C"/>
<path d="M20.6462 9.75485L23.7324 11.5068" stroke="#16599C" stroke-width="0.63211"/>
<path d="M27.2205 9.67675C27.1796 9.84177 27.2873 10.0105 27.4611 10.0537L30.2933 10.7569C30.4671 10.8001 30.6412 10.7013 30.6821 10.5362C30.7229 10.3712 30.6152 10.2025 30.4414 10.1593L27.9239 9.53423L28.516 7.14388C28.5569 6.97886 28.4491 6.8101 28.2753 6.76695C28.1015 6.7238 27.9275 6.82259 27.8866 6.98761L27.2205 9.67675ZM30.1805 8.25318L30.0103 7.98665L27.365 9.48835L27.5352 9.75488L27.7053 10.0214L30.3507 8.51971L30.1805 8.25318Z" fill="#16599C"/>
<path d="M27.5355 9.75485L24.4492 11.5068" stroke="#16599C" stroke-width="0.63211"/>
<ellipse cx="24.1085" cy="11.5903" rx="0.6788" ry="0.667423" fill="#16599C"/>
<path d="M94.567 43.1607C94.6837 43.044 94.8729 43.044 94.9897 43.1607L96.8919 45.063C97.0087 45.1797 97.0087 45.3689 96.8919 45.4857C96.7752 45.6024 96.5859 45.6024 96.4692 45.4857L94.7783 43.7948L93.0874 45.4857C92.9707 45.6024 92.7814 45.6024 92.6647 45.4857C92.548 45.3689 92.548 45.1797 92.6647 45.063L94.567 43.1607ZM94.7783 46.2126L94.4794 46.2126L94.4794 43.3721L94.7783 43.3721L95.0772 43.3721L95.0772 46.2126L94.7783 46.2126Z" fill="#16599C"/>
<path d="M94.7783 43.3719V40.058" stroke="#16599C" stroke-width="0.597818"/>
<path d="M94.567 36.482C94.6837 36.5987 94.8729 36.5987 94.9897 36.482L96.8919 34.5797C97.0087 34.463 97.0087 34.2738 96.8919 34.157C96.7752 34.0403 96.5859 34.0403 96.4692 34.157L94.7783 35.8479L93.0874 34.157C92.9707 34.0403 92.7814 34.0403 92.6647 34.157C92.548 34.2738 92.548 34.463 92.6647 34.5797L94.567 36.482ZM94.7783 33.4301L94.4794 33.4301L94.4794 36.2706L94.7783 36.2706L95.0772 36.2706L95.0772 33.4301L94.7783 33.4301Z" fill="#16599C"/>
<path d="M94.7783 36.2707V39.5846" stroke="#16599C" stroke-width="0.597818"/>
<path d="M97.3996 41.4732C97.361 41.3171 97.4629 41.1575 97.6273 41.1167L100.306 40.4516C100.47 40.4108 100.635 40.5043 100.673 40.6603C100.712 40.8164 100.61 40.976 100.446 41.0168L98.0649 41.608L98.6249 43.8687C98.6635 44.0247 98.5616 44.1843 98.3973 44.2251C98.2329 44.2659 98.0683 44.1725 98.0296 44.0164L97.3996 41.4732ZM100.199 42.8195L100.038 43.0716L97.5363 41.6514L97.6973 41.3993L97.8582 41.1472L100.36 42.5675L100.199 42.8195Z" fill="#16599C"/>
<path d="M97.6972 41.3994L94.7783 39.7424" stroke="#16599C" stroke-width="0.597818"/>
<path d="M91.9059 41.1089C92.0628 41.154 92.1524 41.3206 92.1062 41.481L91.3531 44.0941C91.3068 44.2545 91.1423 44.3479 90.9854 44.3028C90.8286 44.2577 90.739 44.0912 90.7852 43.9308L91.4546 41.608L89.1832 40.9547C89.0263 40.9096 88.9367 40.743 88.9829 40.5826C89.0291 40.4223 89.1937 40.3288 89.3505 40.3739L91.9059 41.1089ZM89.3204 42.8195L89.1788 42.5565L91.6807 41.1362L91.8223 41.3993L91.9639 41.6623L89.462 43.0826L89.3204 42.8195Z" fill="#16599C"/>
<path d="M91.8233 41.3995L94.7422 39.7426" stroke="#16599C" stroke-width="0.597818"/>
<path d="M91.7995 37.9327C91.8382 38.0888 91.7363 38.2484 91.572 38.2892L88.8938 38.9545C88.7294 38.9953 88.5648 38.9019 88.5262 38.7458C88.4875 38.5897 88.5893 38.4301 88.7537 38.3893L91.1343 37.7979L90.574 35.537C90.5354 35.381 90.6372 35.2213 90.8016 35.1805C90.9659 35.1397 91.1305 35.2331 91.1692 35.3892L91.7995 37.9327ZM89.0001 36.5863L89.161 36.3342L91.6628 37.7545L91.502 38.0066L91.3411 38.2587L88.8392 36.8385L89.0001 36.5863Z" fill="#16599C"/>
<path d="M91.5021 38.0066L94.4209 39.6636" stroke="#16599C" stroke-width="0.597818"/>
<path d="M97.72 37.9327C97.6813 38.0888 97.7832 38.2484 97.9476 38.2892L100.626 38.9542C100.791 38.9951 100.955 38.9016 100.994 38.7456C101.032 38.5895 100.931 38.4299 100.766 38.3891L98.3852 37.7979L98.9452 35.5372C98.9839 35.3812 98.8819 35.2216 98.7176 35.1808C98.5532 35.1399 98.3886 35.2334 98.35 35.3894L97.72 37.9327ZM100.519 36.5863L100.358 36.3343L97.8566 37.7545L98.0176 38.0066L98.1785 38.2587L100.68 36.8384L100.519 36.5863Z" fill="#16599C"/>
<path d="M98.0175 38.0066L95.0986 39.6636" stroke="#16599C" stroke-width="0.597818"/>
<ellipse cx="94.7777" cy="39.7424" rx="0.641978" ry="0.631219" fill="#16599C"/>
<path d="M1 113.073C1 111.26 2.18462 109.66 3.91858 109.131L16.6379 105.249C18.8398 104.578 21.1805 104.502 23.4209 105.032L34.5594 107.663C35.1856 107.811 35.8219 107.912 36.4631 107.966L58.4621 109.809C60.1381 109.949 61.7709 110.413 63.2701 111.176L67 113.073H1Z" fill="#16599C"/>
<path d="M1 74C1.59812 74 2.10973 74.4298 2.21287 75.019L3.69345 83.4762C3.8966 84.6366 3.91947 85.8214 3.76125 86.9888L2.75862 94.3864L2.10842 107.916C2.0593 108.938 1.88966 109.951 1.60304 110.933L1 113L1 74Z" fill="#16599C"/>
<path d="M105 49C103.938 49 102.961 49.5818 102.454 50.5159L101.461 52.3497C100.537 54.0541 100.436 56.0852 101.186 57.8728L101.64 58.9543C101.925 59.6336 102.124 60.3459 102.232 61.0746L102.897 65.5465C103.144 67.2057 103.876 68.7551 105 70L105 49Z" fill="#16599C"/>
<path d="M105 69.8101C105 68.9326 104.359 68.1866 103.492 68.0542L87.7389 65.6508C86.5849 65.4747 85.4124 65.4549 84.2532 65.5918L70.5 67.2164L46.3501 68.2278C45.4525 68.2654 44.5611 68.396 43.6904 68.6174L39 69.8101H105Z" fill="#16599C"/>
<path d="M1 26.5475C1 25.1563 1.95563 23.9473 3.30919 23.6261L17.3388 20.2964C19.0937 19.8799 20.9161 19.8331 22.6901 20.1591L35.5 22.5128L58.9623 24.0414C60.3125 24.1293 61.6407 24.4276 62.8989 24.9252L67 26.5475H1Z" fill="#16599C"/>
<path d="M39 113.073C39 111.26 40.1846 109.66 41.9186 109.131L54.6379 105.249C56.8398 104.578 59.1805 104.502 61.4209 105.032L72.5594 107.663C73.1856 107.811 73.8219 107.912 74.4631 107.966L96.4621 109.809C98.1381 109.949 99.7709 110.413 101.27 111.176L105 113.073H39Z" fill="#16599C"/>
<path d="M67 69.8101C67 68.807 66.2165 67.9787 65.2151 67.9229L29.7577 65.9472C28.9212 65.9005 28.0821 65.9349 27.2522 66.0498L13 68.0223L8.89551 68.0223C7.63848 68.0223 6.3881 68.2047 5.18341 68.5636L1 69.8101H67Z" fill="#16599C"/>
<path d="M39 26.5475C39 25.0317 40.1617 23.7689 41.6722 23.6426L75.6209 20.8051C76.8671 20.701 78.1218 20.7772 79.3462 21.0314L91.6927 23.5945C92.5619 23.775 93.4474 23.8659 94.3352 23.8659L96.2272 23.8659C98.0552 23.866 99.8626 24.2515 101.532 24.9974L105 26.5475H39Z" fill="#16599C"/>
</svg>
