<svg width="27" height="27" viewBox="0 0 27 27" fill="none" xmlns="http://www.w3.org/2000/svg">
<path d="M13.7305 0.650085C17.2299 1.16333 24.5129 4.23547 25.6502 12.4181" stroke="#158AFF" stroke-width="1.3" stroke-linecap="round"/>
<path d="M13.5117 5.37915C15.7353 5.70909 20.2918 7.62276 20.7292 12.6379" stroke="#158AFF" stroke-width="1.3" stroke-linecap="round"/>
<path d="M3.01375 3.50979C4.85093 1.39815 6.73186 3.28988 7.71605 4.38964L9.24704 6.0394C10.778 7.68917 9.68447 8.349 8.48155 9.66878C7.27864 10.9885 7.388 10.8786 7.93477 12.4183C8.48155 13.958 12.309 17.2575 14.0587 18.4673C15.8084 19.6771 15.9177 18.3573 17.3394 17.0375C18.4767 15.9817 19.7087 16.5976 20.1826 17.0375C20.4378 17.3674 21.2762 18.3133 22.5884 19.4571C23.9007 20.6009 23.4997 21.9867 23.1352 22.5366L23.1307 22.5434C23.0474 22.6692 23.042 22.6774 21.4949 24.4062C19.5265 26.6059 16.1365 25.2861 15.1523 24.9561C14.168 24.6262 4.21667 18.9072 1.9202 12.4183C-0.376274 5.92942 0.717283 6.14933 3.01375 3.50979Z" stroke="#158AFF" stroke-width="1.3" stroke-linecap="round"/>
</svg>
