<svg width="121" height="67" viewBox="0 0 121 67" fill="none" xmlns="http://www.w3.org/2000/svg">
<circle cx="60.5" cy="15.5" r="15.5" fill="#B9BDD0"/>
<circle cx="103.5" cy="13.5" r="10.5" fill="#B9BDD0"/>
<circle cx="17.5" cy="13.5" r="10.5" fill="#B9BDD0"/>
<path d="M35 55.8844C35 42.1411 46.1411 31 59.8844 31H61.1156C74.8589 31 86 42.1411 86 55.8844C86 58.2815 84.4005 60.384 82.0902 61.0235L71.1713 64.046C64.1884 65.979 56.8116 65.979 49.8286 64.046L38.9098 61.0235C36.5995 60.384 35 58.2815 35 55.8844Z" fill="#16599C"/>
<path d="M86 41.2885C86 31.7403 93.7403 24 103.288 24H103.712C113.26 24 121 31.7403 121 41.2885C121 42.9497 119.894 44.4078 118.295 44.8559L114.289 45.9778C107.232 47.9546 99.7678 47.9546 92.7108 45.9778L88.7054 44.8559C87.1058 44.4078 86 42.9497 86 41.2885Z" fill="#16599C"/>
<path d="M0 41.2885C0 31.7403 7.74032 24 17.2885 24H17.7115C27.2597 24 35 31.7403 35 41.2885C35 42.9497 33.8942 44.4078 32.2946 44.8559L28.2892 45.9778C21.2322 47.9546 13.7678 47.9546 6.7108 45.9778L2.70541 44.8559C1.10579 44.4078 0 42.9497 0 41.2885Z" fill="#16599C"/>
</svg>
