<svg width="142" height="44" viewBox="0 0 142 44" fill="none" xmlns="http://www.w3.org/2000/svg">
<circle cx="24.5326" cy="32.5931" r="11.2044" fill="#B9BDD0"/>
<circle cx="110.72" cy="32.5931" r="11.2044" fill="#B9BDD0"/>
<path d="M140.024 11.0463C137.439 15.3557 141.748 18.8032 141.748 22.2507V26.5601C141.748 30.8695 137.439 33.4551 134.853 34.317C132.267 35.1789 126.234 34.317 124.51 32.5933C122.787 30.8695 123.649 18.8032 110.72 18.8032C97.7922 18.8032 97.7922 31.7313 97.7923 33.4551C97.7923 34.317 97.7923 35.1789 96.9304 36.0408C96.0685 36.9026 38.3225 38.6263 38.3225 35.1788C38.3225 31.7313 36.5988 17.9413 24.5325 17.9413C12.4662 17.9413 10.7423 32.0845 10.7424 34.6703C10.7424 36.5975 8.15661 36.3939 5.57108 36.394C1.26169 36.394 1.26171 28.2838 0.39992 23.9745C-0.134551 21.3019 -1.32384 20.5269 6.43307 16.2176C14.19 11.9082 27.98 11.9082 38.3226 11.0463C48.6651 10.1844 52.1127 7.59879 60.7315 3.2894C69.3502 -1.02 86.5878 -0.158211 95.2066 0.703762C103.783 1.56145 115.892 5.87504 123.649 9.32255C131.406 12.7701 136.665 9.86768 138.301 9.32255C140.886 8.46064 141.016 9.39374 140.024 11.0463Z" fill="#16599C"/>
</svg>
