<svg width="106" height="176" viewBox="0 0 106 176" fill="none" xmlns="http://www.w3.org/2000/svg">
<rect x="17.5" y="112.5" width="71" height="3.9162" rx="0.5" stroke="black"/>
<rect x="0.5" y="0.5" width="105" height="172" rx="2.5" stroke="black"/>
<path d="M105.5 112.5V170C105.5 171.381 104.381 172.5 103 172.5H3C1.61929 172.5 0.5 171.381 0.5 170V112.5H105.5Z" stroke="black"/>
<path d="M16.5 172.5V175C16.5 175.276 16.2761 175.5 16 175.5H6C5.72386 175.5 5.5 175.276 5.5 175V172.5H16.5Z" stroke="black"/>
<rect x="39.5" y="16.5" width="28" height="31" rx="1.5" stroke="black"/>
<path d="M53 22L53 30" stroke="black"/>
<path d="M50 24.5815C47.0682 25.7683 45 28.6426 45 32C45 36.4183 48.5817 40 53 40C57.4183 40 61 36.4183 61 32C61 28.6453 58.9351 25.7729 56.007 24.5844" stroke="black"/>
<path d="M100.5 172.5V175C100.5 175.276 100.276 175.5 100 175.5H90C89.7239 175.5 89.5 175.276 89.5 175V172.5H100.5Z" stroke="black"/>
<path d="M36 72.5516C36 72.1497 36.3258 71.8239 36.7277 71.8239H40.8645C41.0138 71.8239 41.1595 71.778 41.2818 71.6924L52.0094 64.1831V90.3803L41.2818 82.871C41.1595 82.7854 41.0138 82.7394 40.8645 82.7394H36.7277C36.3258 82.7394 36 82.4136 36 82.0117V72.5516Z" fill="#16599C"/>
<path d="M62.9248 93C67.2911 89.7975 70.2018 84.0534 70.2018 77.5C70.2018 70.9466 67.2911 65.2025 62.9248 62" stroke="#16599C" stroke-linecap="round"/>
<path d="M59.2861 87.4696C62.156 85.3646 64.0691 81.5892 64.0691 77.2818C64.0691 72.9744 62.156 69.1989 59.2861 67.094" stroke="#16599C" stroke-linecap="round"/>
<path d="M55.6475 83.831C57.4924 82.4778 58.7222 80.0508 58.7222 77.2817C58.7222 74.5127 57.4924 72.0856 55.6475 70.7324" stroke="#16599C" stroke-linecap="round"/>
</svg>
