<svg width="145" height="23" viewBox="0 0 145 23" fill="none" xmlns="http://www.w3.org/2000/svg">
<path d="M11.3649 0L13.9164 7.85293L22.1735 7.85293L15.4934 12.7063L18.045 20.5592L11.3649 15.7059L4.68476 20.5592L7.23634 12.7063L0.556236 7.85293L8.81329 7.85293L11.3649 0Z" fill="#FFB021"/>
<path d="M41.9325 0L44.4841 7.85293L52.7411 7.85293L46.061 12.7063L48.6126 20.5592L41.9325 15.7059L35.2524 20.5592L37.804 12.7063L31.1239 7.85293L39.3809 7.85293L41.9325 0Z" fill="#FFB021"/>
<path d="M72.5001 0L75.0517 7.85293L83.3087 7.85293L76.6286 12.7063L79.1802 20.5592L72.5001 15.7059L65.82 20.5592L68.3716 12.7063L61.6915 7.85293L69.9485 7.85293L72.5001 0Z" fill="#FFB021"/>
<path d="M103.068 0L105.619 7.85293L113.876 7.85293L107.196 12.7063L109.748 20.5592L103.068 15.7059L96.3874 20.5592L98.939 12.7063L92.2589 7.85293L100.516 7.85293L103.068 0Z" fill="#FFB021"/>
<path d="M133.635 0L136.187 7.85293L144.444 7.85293L137.764 12.7063L140.315 20.5592L133.635 15.7059L126.955 20.5592L129.507 12.7063L122.826 7.85293L131.084 7.85293L133.635 0Z" fill="#FFB021"/>
</svg>
